<?xml version="1.0" encoding="UTF-8" standalone="no"?>
<svg width="256" height="256" viewBox="0 0 256 256" xmlns="http://www.w3.org/2000/svg">
  <!-- Main circle background -->
  <circle cx="128" cy="128" r="120" fill="#3498db" />
  <circle cx="128" cy="128" r="110" fill="#2980b9" />

  <!-- Video film frames -->
  <rect x="48" y="78" width="160" height="100" rx="10" ry="10" fill="#ecf0f1" />
  
  <!-- Film perforations -->
  <rect x="48" y="78" width="15" height="10" fill="#34495e" />
  <rect x="48" y="98" width="15" height="10" fill="#34495e" />
  <rect x="48" y="118" width="15" height="10" fill="#34495e" />
  <rect x="48" y="138" width="15" height="10" fill="#34495e" />
  <rect x="48" y="158" width="15" height="10" fill="#34495e" />
  
  <rect x="193" y="78" width="15" height="10" fill="#34495e" />
  <rect x="193" y="98" width="15" height="10" fill="#34495e" />
  <rect x="193" y="118" width="15" height="10" fill="#34495e" />
  <rect x="193" y="138" width="15" height="10" fill="#34495e" />
  <rect x="193" y="158" width="15" height="10" fill="#34495e" />
  
  <!-- Lock symbol representing encryption -->
  <rect x="108" y="103" width="40" height="30" rx="5" ry="5" fill="#e74c3c" />
  <rect x="113" y="93" width="30" height="15" rx="5" ry="5" fill="#e74c3c" />
  <circle cx="128" cy="118" r="5" fill="#ecf0f1" />
  <rect x="126" y="118" width="4" height="10" fill="#ecf0f1" />

  <!-- Binary data representation -->
  <text x="88" y="155" font-family="Courier New" font-size="12" fill="#2c3e50">10110101</text>
  <text x="88" y="167" font-family="Courier New" font-size="12" fill="#2c3e50">01001110</text>
</svg> 